<svg width="72" height="68" viewBox="0 0 72 68" fill="none" xmlns="http://www.w3.org/2000/svg">
<g clip-path="url(#clip0_126_4115)">
<path d="M7.3219 9.13401V66.5535L52.3219 65.6086L52.8463 8.31885L7.3219 9.13401Z" fill="white" stroke="#1D1D1D" stroke-width="0.2"/>
<path d="M7.32189 67C7.20766 67 7.09343 66.9533 7.01036 66.8702C6.92729 66.7872 6.87537 66.6729 6.87537 66.5535V9.134C6.87537 8.88997 7.06747 8.69267 7.3115 8.68748L52.8411 7.87231C52.9605 7.87231 53.0747 7.91904 53.163 8.00212C53.2461 8.08519 53.298 8.20461 53.2928 8.32403L52.7684 65.6137C52.7684 65.8526 52.5711 66.0499 52.3323 66.0551L7.33227 67H7.32189ZM7.76841 9.57013V66.0966L51.8857 65.1724L52.3998 8.77055L7.76841 9.57013Z" fill="#1D1D1D" stroke="#1D1D1D" stroke-width="0.2"/>
<path d="M65.7538 6.28872C66.1121 5.42164 66.4704 4.55975 66.8286 3.69266C67 3.27729 67.1973 2.83077 67.5919 2.60751C67.9605 2.39464 68.4226 2.42579 68.8432 2.49848C69.352 2.58155 69.9231 2.77366 70.0996 3.24614C70.2658 3.68747 70.0062 4.15995 69.757 4.55975C69.1754 5.48913 68.568 6.40294 67.9449 7.30118C67.8099 7.49329 67.6697 7.69059 67.4672 7.81C67.2959 7.90865 67.0986 7.93981 66.9013 7.93981C66.4392 7.93981 65.9719 7.73732 65.7123 7.36348C65.4579 6.98965 65.4579 6.44448 65.7487 6.28353L65.7538 6.28872Z" fill="white" stroke="#1D1D1D" stroke-width="0.2"/>
<path d="M66.9065 8.38639C66.2731 8.38639 65.6812 8.09044 65.3541 7.61277C65.1205 7.27528 65.0322 6.83914 65.1205 6.4705C65.1672 6.2784 65.2606 6.11225 65.3956 5.99802L66.4237 3.51619C66.5846 3.12159 66.8339 2.5245 67.379 2.21297C67.8827 1.92741 68.4694 1.97414 68.9211 2.05202C69.783 2.19221 70.3178 2.54008 70.5254 3.08006C70.785 3.77061 70.3489 4.45597 70.1412 4.78826C69.5545 5.71765 68.9418 6.64703 68.3188 7.55046C68.1838 7.74776 67.9969 8.01775 67.6957 8.18909C67.4777 8.31889 67.2129 8.3812 66.9117 8.3812L66.9065 8.38639ZM65.9875 6.6678C65.9616 6.73011 65.9616 6.93779 66.081 7.11432C66.242 7.34797 66.5639 7.49854 66.9013 7.49854C67.0415 7.49854 67.161 7.47258 67.244 7.42585C67.3583 7.35835 67.4569 7.22336 67.5763 7.05202C68.1942 6.16417 68.8017 5.24517 69.378 4.32616C69.5805 4.00944 69.7726 3.646 69.6791 3.40197C69.5961 3.1839 69.2741 3.02294 68.7653 2.93987C68.4538 2.88795 68.0644 2.8516 67.8048 2.99698C67.5452 3.14236 67.3946 3.47985 67.2336 3.86406L66.1589 6.46012C66.1225 6.54839 66.0602 6.62107 65.9772 6.6678H65.9875Z" fill="#1D1D1D" stroke="#1D1D1D" stroke-width="0.2"/>
<path d="M16.8131 3.69269C16.1796 3.84326 15.4631 4.04576 15.1776 4.62208C15.0322 4.90765 15.027 5.23475 15.0166 5.55147C14.9803 7.1766 14.9439 8.80173 15.1204 10.4165C15.1828 10.9876 15.2866 11.5847 15.6656 12.026C16.0395 12.4674 16.7715 12.6647 17.2233 12.296C17.5971 11.9897 17.6334 11.4497 17.6386 10.972C17.6646 9.33651 17.6905 7.69581 17.7165 6.06029C17.7321 5.1984 17.6023 4.11844 16.8183 3.6875L16.8131 3.69269Z" fill="white" stroke="#1D1D1D" stroke-width="0.2"/>
<path d="M16.6521 12.9398C16.1537 12.9398 15.6448 12.6905 15.3281 12.3167C14.8816 11.7923 14.757 11.1173 14.6843 10.4683C14.5026 8.82241 14.5389 7.15575 14.5753 5.541C14.5857 5.20871 14.5908 4.79853 14.783 4.41951C15.1879 3.61473 16.1848 3.38108 16.7144 3.25647C16.8235 3.23051 16.9325 3.24609 17.0311 3.29801C17.8048 3.72376 18.1838 4.65315 18.163 6.0654L18.0851 10.9771C18.0799 11.3977 18.0644 12.1765 17.5036 12.6386C17.2544 12.8463 16.9533 12.9346 16.6521 12.9346V12.9398ZM16.73 4.17028C16.2419 4.29489 15.7539 4.46623 15.5722 4.8193C15.4735 5.0166 15.4631 5.29178 15.4579 5.56177C15.4216 7.14536 15.3852 8.78088 15.5618 10.3697C15.6137 10.8473 15.6968 11.3821 16.0031 11.7404C16.2264 12 16.6936 12.1557 16.9377 11.9533C17.1609 11.7715 17.1869 11.351 17.1921 10.9668L17.27 6.05502C17.2855 5.10486 17.1038 4.47143 16.73 4.17028Z" fill="#1D1D1D" stroke="#1D1D1D" stroke-width="0.2"/>
<path d="M30.8785 3.69269C30.2451 3.84326 29.5286 4.04576 29.243 4.62208C29.0976 4.90765 29.0924 5.23475 29.082 5.55147C29.0457 7.1766 29.0093 8.80173 29.1859 10.4165C29.2482 10.9876 29.352 11.5847 29.7311 12.026C30.1101 12.4674 30.837 12.6647 31.2887 12.296C31.6625 11.9897 31.6989 11.4497 31.7041 10.972C31.73 9.33651 31.756 7.69581 31.7819 6.06029C31.7975 5.1984 31.6677 4.11844 30.8837 3.6875L30.8785 3.69269Z" fill="white" stroke="#1D1D1D" stroke-width="0.2"/>
<path d="M30.7124 12.9398C30.2139 12.9398 29.7051 12.6905 29.3884 12.3167C28.9418 11.7923 28.8172 11.1173 28.7445 10.4683C28.5628 8.81722 28.5992 7.15575 28.6355 5.541C28.6407 5.2139 28.6511 4.80372 28.8432 4.41951C29.2482 3.61473 30.2451 3.38108 30.7747 3.25647C30.8837 3.23051 30.9927 3.24609 31.0914 3.29801C31.865 3.72376 32.244 4.65315 32.2233 6.0654L32.1454 10.9771C32.1402 11.3977 32.1246 12.1765 31.5639 12.6386C31.3094 12.8463 31.0135 12.9346 30.7124 12.9346V12.9398ZM30.7954 4.17028C30.3074 4.29489 29.8193 4.46623 29.6376 4.8193C29.5389 5.02179 29.5286 5.29178 29.5234 5.55658C29.487 7.14017 29.4507 8.77568 29.6272 10.3645C29.6791 10.8421 29.7622 11.3769 30.0685 11.7352C30.2918 11.9948 30.7591 12.1506 31.0031 11.9481C31.2264 11.7663 31.2523 11.3458 31.2575 10.9616L31.3354 6.04983C31.351 5.09967 31.1693 4.46623 30.7954 4.16509V4.17028Z" fill="#1D1D1D" stroke="#1D1D1D" stroke-width="0.2"/>
<path d="M44.9387 3.69269C44.3052 3.84326 43.5887 4.04576 43.3032 4.62208C43.1578 4.90765 43.1526 5.23475 43.1422 5.55147C43.1059 7.1766 43.0695 8.80173 43.2461 10.4165C43.3084 10.9876 43.4122 11.5847 43.7912 12.026C44.1703 12.4674 44.8971 12.6647 45.3489 12.296C45.7227 11.9897 45.759 11.4497 45.7642 10.972C45.7902 9.33651 45.8162 7.69581 45.8421 6.06029C45.8577 5.1984 45.7279 4.11844 44.9439 3.6875L44.9387 3.69269Z" fill="white" stroke="#1D1D1D" stroke-width="0.2"/>
<path d="M44.7778 12.9398C44.2793 12.9398 43.7705 12.6905 43.4538 12.3167C43.0073 11.7923 42.8827 11.1173 42.81 10.4683C42.6283 8.82241 42.6646 7.15575 42.7009 5.541C42.7113 5.20871 42.7165 4.79853 42.9086 4.41951C43.3136 3.61473 44.3105 3.38108 44.8453 3.25647C44.9543 3.23051 45.0633 3.24609 45.162 3.29801C45.946 3.72895 46.3146 4.63238 46.2939 6.0654L46.216 10.9771C46.2108 11.3977 46.1952 12.1765 45.6397 12.6334C45.3853 12.8411 45.0893 12.9294 44.7882 12.9294L44.7778 12.9398ZM44.8557 4.17028C44.3676 4.29489 43.8795 4.46623 43.6978 4.8193C43.5992 5.0166 43.5888 5.29178 43.5836 5.56177C43.5473 7.14536 43.5109 8.78088 43.6874 10.3697C43.7394 10.8473 43.8224 11.3821 44.1288 11.7404C44.352 12 44.8193 12.1557 45.0634 11.9533C45.2866 11.7715 45.3126 11.351 45.3178 10.9668L45.3956 6.05502C45.4112 5.10486 45.2295 4.47143 44.8557 4.17028Z" fill="#1D1D1D" stroke="#1D1D1D" stroke-width="0.2"/>
<path d="M55.1256 24.8868C52.4621 30.1516 50.3956 34.9699 47.4205 40.8525C47.1557 41.6365 46.813 42.405 46.6469 43.2149C46.4808 44.0301 46.5171 44.9179 46.9584 45.6241C47.3998 46.3302 48.3343 46.7767 49.1235 46.4911C49.7829 46.2523 50.1879 45.6085 50.5358 45.0114C53.9937 39.0612 57.0363 32.7424 60.2087 26.6417L55.1256 24.8816V24.8868Z" fill="white" stroke="#1D1D1D" stroke-width="0.2"/>
<path d="M48.6147 47.0261C47.8359 47.0261 47.0363 46.5899 46.5794 45.863C46.0031 44.944 46.0602 43.8693 46.2108 43.132C46.3354 42.5245 46.5483 41.9534 46.7508 41.3978C46.8338 41.1694 46.9221 40.9409 47 40.7125C47.0052 40.6917 47.0156 40.6761 47.026 40.6554C48.5524 37.6387 49.8453 34.8921 51.0914 32.2338C52.2959 29.6741 53.433 27.2493 54.731 24.6844C54.8297 24.4871 55.0633 24.3885 55.2762 24.4664L60.3593 26.2265C60.4839 26.268 60.5774 26.3615 60.6293 26.4809C60.676 26.6003 60.6708 26.7353 60.6085 26.8495C59.7051 28.5889 58.7965 30.375 57.9138 32.104C55.6968 36.4653 53.4019 40.9721 50.9252 45.2348C50.6085 45.78 50.1308 46.6055 49.2793 46.9119C49.0665 46.9897 48.8432 47.0261 48.6199 47.0261H48.6147ZM47.8307 41.024C47.7528 41.2525 47.6698 41.4757 47.5867 41.7042C47.3842 42.2493 47.1921 42.7686 47.0831 43.3085C46.9637 43.89 46.9117 44.7208 47.3323 45.3906C47.6438 45.889 48.3603 46.294 48.973 46.0759C49.4766 45.8942 49.8141 45.3646 50.1516 44.7935C52.6179 40.5515 54.9076 36.0552 57.1194 31.7042C57.9242 30.1258 58.7497 28.4954 59.5805 26.9015L55.3489 25.4373C54.1288 27.862 53.0436 30.1725 51.8962 32.6128C50.65 35.266 49.3624 38.0074 47.8359 41.0292L47.8307 41.024Z" fill="#1D1D1D" stroke="#1D1D1D" stroke-width="0.2"/>
<path d="M60.3281 28.0488C59.3209 27.6231 55.5877 25.8837 54.0093 24.8557C55.8785 21.6781 56.5171 19.674 58.1786 16.3199C58.8224 15.0166 61.2264 10.3645 61.73 9.37283C63.729 5.41644 66.569 6.25756 68.1215 7.33752C70.8941 9.26379 67.7477 13.0021 67.1817 14.0457C64.6064 18.7861 62.514 22.836 60.3333 28.0488H60.3281Z" fill="#FFE7A9" stroke="#1D1D1D" stroke-width="0.2"/>
<path d="M60.3281 28.4952C60.271 28.4952 60.2087 28.4848 60.1568 28.4589C59.1806 28.0435 55.3956 26.2886 53.7653 25.2242C53.568 25.0944 53.5057 24.8296 53.6251 24.6271C54.7881 22.6489 55.4527 21.164 56.2263 19.4454C56.6832 18.4277 57.1557 17.3737 57.7788 16.1224C58.1838 15.3073 59.2689 13.1941 60.1412 11.4963C60.676 10.4526 61.1381 9.54922 61.3302 9.17539C62.1869 7.47238 63.2876 6.44434 64.6012 6.11204C66.2159 5.70187 67.6593 6.48068 68.3759 6.97913C71.0965 8.87425 68.8847 12.2439 67.9397 13.6821C67.784 13.921 67.6438 14.1287 67.5711 14.2637C64.8504 19.2688 62.8618 23.1577 60.7383 28.2252C60.6915 28.3343 60.6033 28.4225 60.4942 28.4641C60.4423 28.4848 60.3852 28.4952 60.3281 28.4952ZM54.6064 24.705C56.1121 25.6136 58.8639 26.9116 60.0893 27.462C62.1557 22.5762 64.191 18.6043 66.7819 13.8379C66.8753 13.6718 67.0103 13.4589 67.1869 13.1889C68.5784 11.0653 69.622 8.93655 67.8566 7.70602C67.2647 7.29585 66.0809 6.65202 64.8089 6.97393C63.7601 7.23873 62.8566 8.1162 62.1194 9.57518C61.9273 9.94901 61.4652 10.8524 60.9304 11.9012C60.0581 13.5991 58.973 15.7123 58.5732 16.517C57.9605 17.7579 57.488 18.8016 57.0363 19.814C56.3354 21.382 55.6656 22.867 54.6064 24.7102V24.705Z" fill="#1D1D1D" stroke="#1D1D1D" stroke-width="0.2"/>
<path d="M63.9678 27.0882C63.6459 27.0882 63.3292 26.9999 63.0748 26.8234C62.3531 26.3301 62.0519 25.3073 62.3375 24.3364C62.5763 23.5264 63.1267 22.8826 63.6095 22.3166L68.1319 17.0207C69.0353 15.9667 69.9647 14.8763 70.5722 13.6354C71.2316 12.301 71.4029 10.9459 71.055 9.82441C70.6656 8.55754 69.5286 7.60219 68.3499 7.55546C68.1059 7.54508 67.9138 7.33739 67.9242 7.09336C67.9346 6.84934 68.1423 6.65203 68.3863 6.66761C69.9543 6.72992 71.4029 7.9241 71.9065 9.57C72.3167 10.9096 72.1246 12.4983 71.3666 14.0352C70.7072 15.3748 69.7414 16.5067 68.8017 17.6022L64.2793 22.8981C63.8536 23.3966 63.3707 23.9625 63.1838 24.5908C63.0332 25.0996 63.1163 25.7798 63.568 26.0913C63.7653 26.2263 64.0768 26.2367 64.3313 26.1172C64.4351 26.0705 64.6064 25.9615 64.6272 25.7746C64.6532 25.5305 64.8712 25.3488 65.1153 25.38C65.3593 25.4059 65.5358 25.624 65.5099 25.868C65.4631 26.3249 65.1672 26.7143 64.6999 26.9272C64.4663 27.0363 64.2066 27.0882 63.9574 27.0882H63.9678Z" fill="#1D1D1D" stroke="#1D1D1D" stroke-width="0.2"/>
<path d="M46.4548 49.513C46.3925 49.513 46.3302 49.4974 46.2679 49.4714C46.0447 49.3676 45.946 49.1028 46.0498 48.8795L47.2804 46.2316C47.3842 46.0083 47.649 45.9148 47.8723 46.0135C48.0955 46.1173 48.1942 46.3821 48.0903 46.6054L46.8598 49.2534C46.7819 49.4143 46.6262 49.513 46.4548 49.513Z" fill="#1D1D1D" stroke="#1D1D1D" stroke-width="0.2"/>
<path d="M44.4766 21.2574C44.4766 21.2574 44.4662 21.2574 44.461 21.2574C34.9231 20.9771 25.245 20.9459 15.7019 21.1744C15.4631 21.1744 15.2502 20.9874 15.245 20.7382C15.2398 20.4942 15.432 20.2865 15.6812 20.2813C25.2398 20.0529 34.9335 20.084 44.487 20.3644C44.731 20.3696 44.9283 20.5773 44.9179 20.8213C44.9127 21.0601 44.7154 21.2522 44.4714 21.2522L44.4766 21.2574Z" fill="#1D1D1D" stroke="#1D1D1D" stroke-width="0.2"/>
<path d="M32.0935 30.6292C26.486 30.6292 20.8733 30.4942 15.3074 30.2191C15.0633 30.2087 14.8712 29.9958 14.8868 29.7518C14.8972 29.5077 15.0997 29.3156 15.3541 29.3312C24.648 29.7881 34.0768 29.866 43.3707 29.5545C43.3707 29.5545 43.3811 29.5545 43.3863 29.5545C43.6251 29.5545 43.8224 29.7466 43.8328 29.9854C43.8432 30.2294 43.6459 30.4371 43.4019 30.4475C39.648 30.5721 35.8733 30.6344 32.0986 30.6344L32.0935 30.6292Z" fill="#1D1D1D" stroke="#1D1D1D" stroke-width="0.2"/>
<path d="M31.704 39.9959C26.1017 39.9959 20.4942 39.8973 14.9283 39.7052C14.6843 39.6948 14.4922 39.4923 14.4974 39.2431C14.5077 38.999 14.7154 38.8069 14.9595 38.8121C24.0249 39.1288 33.2253 39.1859 42.2907 38.9835H42.3011C42.5399 38.9835 42.7424 39.1756 42.7476 39.4196C42.7528 39.6636 42.5555 39.8713 42.3115 39.8765C38.7912 39.9544 35.2502 39.9907 31.7092 39.9907L31.704 39.9959Z" fill="#1D1D1D" stroke="#1D1D1D" stroke-width="0.2"/>
<path d="M24.0768 48.6927C20.8993 48.6927 17.7269 48.6407 14.5753 48.5369C14.3312 48.5265 14.1391 48.324 14.1443 48.0748C14.1547 47.8308 14.3624 47.6283 14.6064 47.6439C22.0934 47.8879 29.6895 47.8412 37.1765 47.5037C37.4205 47.4829 37.6282 47.6854 37.6438 47.9294C37.6542 48.1734 37.4673 48.3811 37.2181 48.3967C32.8619 48.594 28.4694 48.6927 24.0872 48.6927H24.0768Z" fill="#1D1D1D" stroke="#1D1D1D" stroke-width="0.2"/>
<path d="M14.2585 56.7144C14.0145 56.7144 13.812 56.5171 13.812 56.2731C13.812 56.029 14.0093 55.8265 14.2533 55.8265L42.9761 55.6812C43.2201 55.6812 43.4226 55.8785 43.4226 56.1225C43.4226 56.3665 43.2253 56.569 42.9813 56.569L14.2585 56.7144Z" fill="#1D1D1D" stroke="#1D1D1D" stroke-width="0.2"/>
</g>
<defs>
<clipPath id="clip0_126_4115">
<rect width="72" height="68" fill="white"/>
</clipPath>
</defs>
</svg>
