<svg width="58" height="68" viewBox="0 0 58 68" fill="none" xmlns="http://www.w3.org/2000/svg">
<path d="M1.74196 32.5323C9.66162 25.2178 18.018 17.4718 25.9377 10.1573C27.3901 8.81544 29.0582 7.38938 31.0368 7.44726C32.2471 7.4841 33.3627 8.08399 34.3731 8.74703C43.603 14.7828 50.6807 28.2804 56.5429 33.1849C56.2587 42.3727 49.4809 51.7395 42.5822 57.8121C40.1878 59.917 37.5515 61.8588 34.4994 62.7797C32.2208 63.4638 29.7791 63.548 27.4269 63.1796C20.5071 62.0956 14.6502 57.207 10.772 51.3659C6.89895 45.5301 4.28888 39.1943 1.73669 32.5376L1.74196 32.5323Z" fill="#DBF5F0" stroke="#1D1D1D" stroke-width="0.1"/>
<path d="M30.1528 63.8375C29.2319 63.8375 28.2952 63.7638 27.3585 63.6165C20.9807 62.6166 14.8029 58.2384 10.4036 51.608C6.39906 45.5775 3.72058 38.9576 1.321 32.6956C1.25786 32.5219 1.29996 32.3325 1.43677 32.2062C5.39924 28.5489 9.46694 24.7864 13.5347 21.0187C17.6024 17.2509 21.6701 13.4884 25.6325 9.83115C27.2217 8.36299 28.953 6.93692 31.0526 7.00007C32.4103 7.04217 33.6153 7.71573 34.6204 8.36825C40.1826 12.0045 44.9344 18.2718 49.1284 23.8024C51.8911 27.4439 54.5011 30.8854 56.8376 32.8376C56.9428 32.9271 57.0007 33.0587 57.0007 33.1955C56.706 42.6938 49.5178 52.3132 42.8874 58.1437C40.8141 59.9697 38.004 62.1904 34.6415 63.2007C33.2417 63.6217 31.7262 63.8322 30.1633 63.8322L30.1528 63.8375ZM2.26821 32.6587C4.62043 38.7892 7.25681 45.2513 11.1456 51.1134C15.408 57.5333 21.3649 61.7694 27.4954 62.7324C29.9002 63.1113 32.2787 62.9745 34.3731 62.3483C37.5673 61.3853 40.2826 59.2383 42.2875 57.4754C48.7285 51.8133 55.7009 42.5307 56.0903 33.3849C53.7223 31.3484 51.1438 27.9438 48.4127 24.3444C44.2661 18.8717 39.5617 12.6728 34.131 9.12075C33.2365 8.53664 32.163 7.93148 31.0263 7.89465C29.2529 7.84729 27.6953 9.14706 26.2482 10.4837C22.2857 14.1409 18.218 17.9034 14.1503 21.6712C10.1563 25.3653 6.16752 29.0594 2.27347 32.6535L2.26821 32.6587Z" fill="#1D1D1D" stroke="#1D1D1D" stroke-width="0.1"/>
<path d="M12.2559 12.2622C12.619 27.0123 12.719 41.7676 12.5506 56.5229C12.5506 56.5229 46.1079 56.4545 46.1395 56.044C46.0658 41.4781 46.2658 26.9175 46.7446 12.3569L12.2507 12.2622H12.2559Z" fill="white" stroke="#1D1D1D" stroke-width="0.1"/>
<path d="M12.5558 56.9701C12.4348 56.9701 12.319 56.9227 12.2348 56.8385C12.1507 56.7543 12.1033 56.6385 12.1033 56.5175C12.2664 41.8306 12.1664 26.949 11.8033 12.2726C11.8033 12.1516 11.8454 12.0358 11.9296 11.9464C12.0138 11.8622 12.1296 11.8096 12.2506 11.8096L46.7446 11.9043C46.8656 11.9043 46.9814 11.9517 47.0656 12.0411C47.1498 12.1306 47.1971 12.2463 47.1919 12.3674C46.7183 26.8543 46.513 41.5465 46.592 56.0334C46.592 56.0492 46.592 56.0597 46.592 56.0755C46.5446 56.5859 46.5446 56.6175 40.8877 56.7333C38.0987 56.7912 34.2099 56.8385 29.3371 56.8806C21.0386 56.949 12.6348 56.9648 12.5506 56.9648L12.5558 56.9701ZM12.719 12.7094C13.0663 27.0964 13.1663 41.678 13.0084 56.0702C25.2326 56.0439 43.0663 55.9176 45.6974 55.6703C45.629 41.4412 45.829 27.0227 46.2868 12.7989L12.719 12.7042V12.7094Z" fill="#1D1D1D" stroke="#1D1D1D" stroke-width="0.1"/>
<path d="M1.74198 32.5325C2.48395 40.6731 2.45764 48.8822 1.66304 57.0124C1.44203 59.2646 1.24733 61.7537 1.85775 63.9112C2.29977 65.4741 3.72584 66.5528 5.34661 66.5476L11.6192 66.5265C14.0977 66.516 16.571 66.5107 19.0495 66.5002C29.8107 66.4634 40.5667 66.4213 51.328 66.3844C52.3226 66.3844 53.3382 66.3739 54.2643 66.0161C55.1905 65.6582 56.0167 64.8636 55.9904 63.9533C56.364 53.6235 56.6166 43.2937 56.5429 33.185C49.3863 40.068 42.0665 46.7773 34.5836 53.3025C33.4048 54.3339 31.8367 55.4285 30.3422 54.9654C25.9693 53.3236 22.3752 50.1557 18.8863 47.0562C13.1663 41.9729 7.4515 36.8896 1.74198 32.5377V32.5325Z" fill="white" stroke="#1D1D1D" stroke-width="0.1"/>
<path d="M5.33084 67C3.52063 67 1.91565 65.7844 1.421 64.0373C0.805317 61.864 0.973709 59.4592 1.21577 56.9754C2.00511 48.8821 2.03142 40.673 1.29471 32.5797C1.27892 32.4008 1.36838 32.2324 1.52624 32.1482C1.67885 32.064 1.87355 32.0745 2.01563 32.185C7.73568 36.5474 13.5557 41.7202 19.1863 46.7246C22.4489 49.6293 26.1535 52.9182 30.5001 54.5495C31.8104 54.9547 33.2891 53.8444 34.2889 52.9709C41.7297 46.4773 49.1126 39.7153 56.2324 32.8691C56.364 32.7428 56.5534 32.7113 56.7166 32.7797C56.8797 32.8481 56.9902 33.0112 56.9902 33.1901C57.0533 41.9517 56.8797 51.7342 56.4377 63.9795C56.4692 65.1214 55.4484 66.0475 54.4222 66.4422C53.4066 66.8369 52.3015 66.8369 51.3228 66.8421L5.34663 67.0052H5.33084V67ZM2.27874 33.5111C2.93126 41.3361 2.87338 49.2505 2.11035 57.0596C1.87881 59.4539 1.71568 61.7693 2.28927 63.79C2.67341 65.1529 3.92582 66.1001 5.3361 66.1001H5.34663L51.3228 65.937C52.2647 65.937 53.2382 65.9318 54.1012 65.595C54.8116 65.3213 55.5641 64.6951 55.5431 63.9637C55.9641 52.1921 56.143 42.7095 56.1009 34.2268C49.2021 40.8362 42.0665 47.3613 34.8783 53.6339C33.7153 54.6495 31.9683 55.9335 30.2107 55.3862C25.6799 53.6865 21.9121 50.3398 18.5864 47.3824C13.2347 42.6253 7.70937 37.7104 2.27348 33.5059L2.27874 33.5111Z" fill="#1D1D1D" stroke="#1D1D1D" stroke-width="0.1"/>
<path d="M18.6074 20.2134C18.3601 20.2134 18.1602 20.0135 18.1602 19.7661C18.1602 19.5188 18.3601 19.3188 18.6074 19.3136L40.7088 19.2241C40.9562 19.2241 41.1561 19.4241 41.1561 19.6714C41.1561 19.9187 40.9562 20.1187 40.7088 20.124L18.6074 20.2134Z" fill="#1D1D1D" stroke="#1D1D1D" stroke-width="0.1"/>
<path d="M40.6615 27.4123H40.6509L18.3022 26.886C18.0549 26.8808 17.8602 26.6755 17.8655 26.4282C17.8707 26.1862 18.0707 25.9915 18.3128 25.9915H18.3233L40.672 26.5177C40.9193 26.5229 41.114 26.7282 41.1088 26.9755C41.1035 27.2176 40.9035 27.4123 40.6615 27.4123Z" fill="#1D1D1D" stroke="#1D1D1D" stroke-width="0.1"/>
<path d="M40.2668 34.2899C33.026 34.2163 25.6851 34.011 18.4443 33.69C18.197 33.6795 18.0075 33.469 18.0181 33.2217C18.0286 32.9744 18.2391 32.7744 18.4864 32.7955C25.7167 33.1165 33.0523 33.3217 40.2826 33.3954C40.5299 33.3954 40.7299 33.6006 40.7246 33.8479C40.7246 34.0952 40.5194 34.2899 40.2773 34.2899H40.2668Z" fill="#1D1D1D" stroke="#1D1D1D" stroke-width="0.1"/>
<path d="M40.2195 40.8046H40.2089L18.2601 40.3679C18.0128 40.3679 17.8181 40.1574 17.8181 39.91C17.8181 39.6627 18.0339 39.4733 18.2759 39.468L40.2247 39.9048C40.472 39.9048 40.672 40.1153 40.6667 40.3626C40.6667 40.6099 40.4615 40.8046 40.2195 40.8046Z" fill="#1D1D1D" stroke="#1D1D1D" stroke-width="0.1"/>
</svg>
