<svg width="92" height="68" viewBox="0 0 92 68" fill="none" xmlns="http://www.w3.org/2000/svg">
<g clip-path="url(#clip0_126_4151)">
<path d="M78.2753 66.4652C78.2753 49.0082 78.478 33.803 78.2753 17.4099C53.8152 17.4099 29.2257 18.1192 4.57982 17.8603C4.34338 34.5629 4.57982 50.2804 4.57982 66.5215C29.2144 66.5215 53.7646 66.4652 78.2753 66.4652Z" fill="white" stroke="#1D1D1D" stroke-width="0.1"/>
<path d="M4.57989 67C4.31531 67 4.10702 66.786 4.10702 66.5271C4.10702 61.1115 4.07887 55.6678 4.05635 50.3986C4.00006 39.8771 3.94939 28.9954 4.10702 17.8546C4.10702 17.5957 4.32094 17.3705 4.58552 17.3874C18.8168 17.5394 33.2565 17.3592 47.2232 17.1903C57.4125 17.0665 67.9453 16.937 78.2754 16.937C78.5343 16.937 78.7483 17.1453 78.7483 17.4043C78.8834 28.2185 78.8383 38.4472 78.7933 49.2784C78.7708 54.8065 78.7483 60.5204 78.7483 66.4652C78.7483 66.7297 78.5343 66.938 78.2754 66.938C66.0369 66.938 53.5732 66.9549 41.5205 66.9662C29.4228 66.9831 16.9141 66.9943 4.57989 66.9943V67ZM5.04714 18.3444C4.89514 29.3106 4.95144 40.0235 5.0021 50.393C5.02462 55.5046 5.05277 60.7906 5.05277 66.0486C17.2293 66.0486 29.5748 66.0317 41.5149 66.0204C53.41 66.0035 65.7104 65.9923 77.7969 65.9923C77.7969 60.2164 77.8194 54.6601 77.8419 49.2784C77.887 38.6105 77.9264 28.5225 77.8025 17.8884C67.6244 17.8884 57.2605 18.0179 47.2288 18.1417C33.4141 18.3106 19.1377 18.4851 5.04714 18.3444Z" fill="#1D1D1D" stroke="#1D1D1D" stroke-width="0.1"/>
<path d="M4.73746 12.7994C4.65302 14.8373 4.67554 16.7682 4.57983 19.1044C29.2482 19.1551 53.6858 19.1269 78.2753 19.0481C78.2753 16.9427 78.2134 14.1899 78.2134 12.4785L4.73746 12.7994Z" fill="#E3F2FF" stroke="#1D1D1D" stroke-width="0.1"/>
<path d="M29.5128 19.6054C20.9503 19.6054 12.6637 19.5942 4.57979 19.5773C4.45031 19.5773 4.32647 19.5266 4.23639 19.4309C4.14632 19.3352 4.10129 19.2114 4.10692 19.0819C4.15758 17.8772 4.17447 16.7851 4.19136 15.7211C4.20825 14.7134 4.22513 13.7677 4.26454 12.7769C4.2758 12.5236 4.48409 12.3209 4.73742 12.3209L78.2134 11.9944C78.3372 11.9944 78.4611 12.0451 78.5511 12.1351C78.6412 12.2252 78.6919 12.3434 78.6919 12.4729C78.6919 13.2835 78.7031 14.325 78.72 15.4227C78.7369 16.6556 78.7538 17.9335 78.7538 19.0425C78.7538 19.3071 78.5399 19.5154 78.2809 19.5154C60.9252 19.5717 44.7855 19.5998 29.5184 19.5998L29.5128 19.6054ZM5.07519 18.6259C27.3004 18.6709 51.1018 18.6541 77.8024 18.5696C77.8024 17.5845 77.7855 16.4923 77.7686 15.434C77.7574 14.5389 77.7461 13.6776 77.7405 12.9514L5.1934 13.2723C5.16526 14.0886 5.154 14.8936 5.13711 15.738C5.12022 16.6556 5.10896 17.607 5.06956 18.6259H5.07519Z" fill="#1D1D1D" stroke="#1D1D1D" stroke-width="0.1"/>
<path d="M56.2472 16.3685C55.9882 16.3685 55.7743 16.1602 55.7743 15.9013C55.7743 15.6367 55.977 15.4228 56.2415 15.4171L59.6361 15.3552H59.6474C59.9063 15.3552 60.1202 15.5635 60.1202 15.8225C60.1202 16.0871 59.9176 16.301 59.653 16.3066L56.2584 16.3685H56.2472Z" fill="#1D1D1D" stroke="#1D1D1D" stroke-width="0.1"/>
<path d="M63.7513 16.4303C63.4924 16.4303 63.2784 16.222 63.2784 15.9631C63.2784 15.6985 63.4811 15.4845 63.7457 15.4789L67.1403 15.417H67.1515C67.4105 15.417 67.6244 15.6253 67.6244 15.8842C67.6244 16.1488 67.4217 16.3627 67.1572 16.3684L63.7626 16.4303H63.7513Z" fill="#1D1D1D" stroke="#1D1D1D" stroke-width="0.1"/>
<path d="M71.0133 16.3065C70.7543 16.3065 70.5404 16.0982 70.5404 15.8393C70.5404 15.5747 70.7431 15.3608 71.0077 15.3551L74.4022 15.2932H74.4135C74.6724 15.2932 74.8864 15.5015 74.8864 15.7605C74.8864 16.025 74.6837 16.239 74.4191 16.2446L71.0245 16.3065H71.0133Z" fill="#1D1D1D" stroke="#1D1D1D" stroke-width="0.1"/>
<path d="M41.4192 36.7358C41.1546 36.7358 40.9463 36.5219 40.9463 36.263C40.9463 35.9984 41.1602 35.7901 41.4192 35.7845L45.8665 35.7732C46.131 35.7732 46.3393 35.9871 46.3393 36.2461C46.3393 36.5107 46.1254 36.7189 45.8665 36.7246L41.4192 36.7358Z" fill="#1D1D1D" stroke="#1D1D1D" stroke-width="0.1"/>
<path d="M41.4192 46.0359C41.1546 46.0359 40.9463 45.822 40.9463 45.563C40.9463 45.2984 41.1602 45.0901 41.4192 45.0845L45.8665 45.0732C46.131 45.0732 46.3393 45.2872 46.3393 45.5461C46.3393 45.8107 46.1254 46.019 45.8665 46.0246L41.4192 46.0359Z" fill="#1D1D1D" stroke="#1D1D1D" stroke-width="0.1"/>
<path d="M13.9136 55.1723C13.649 55.1723 13.4407 54.9584 13.4407 54.6995C13.4407 54.4405 13.6546 54.2266 13.9136 54.2266L48.4504 54.2153C48.715 54.2153 48.9233 54.4293 48.9233 54.6882C48.9233 54.9472 48.7094 55.1611 48.4504 55.1611L13.9136 55.1723Z" fill="#1D1D1D" stroke="#1D1D1D" stroke-width="0.1"/>
<path d="M90.6725 47.654C93.2777 36.7943 86.5861 25.8789 75.7264 23.2737C64.8667 20.6686 53.9513 27.3602 51.3461 38.2199C48.7409 49.0795 55.4325 59.995 66.2922 62.6001C77.1519 65.2053 88.0673 58.5137 90.6725 47.654Z" fill="white" stroke="#1D1D1D" stroke-width="0.1"/>
<path d="M71.0133 63.6392C59.6023 63.6392 50.3193 54.3561 50.3193 42.9396C50.3193 31.523 59.6023 22.2456 71.0133 22.2456C82.4243 22.2456 91.7129 31.5286 91.7129 42.9396C91.7129 54.3505 82.4299 63.6392 71.0133 63.6392ZM71.0133 23.197C60.1259 23.197 51.2651 32.0578 51.2651 42.9452C51.2651 53.8326 60.1259 62.6934 71.0133 62.6934C81.9007 62.6934 90.7615 53.8326 90.7615 42.9452C90.7615 32.0578 81.9007 23.197 71.0133 23.197Z" fill="#1D1D1D" stroke="#1D1D1D" stroke-width="0.1"/>
<path d="M70.7318 63.4871C70.4672 63.4871 70.2589 63.2732 70.2589 63.0086L70.5066 23.1181C70.5066 22.8592 70.7205 22.6453 70.9795 22.6453C71.2441 22.6453 71.4524 22.8592 71.4524 23.1238L71.2047 63.0143C71.2047 63.2732 70.9907 63.4871 70.7318 63.4871Z" fill="#1D1D1D" stroke="#1D1D1D" stroke-width="0.1"/>
<path d="M71.002 35.1484C65.3106 35.1484 59.7149 33.6848 55.2451 31.022C55.0199 30.8869 54.9467 30.5942 55.0818 30.369C55.2169 30.1438 55.5097 30.0707 55.7348 30.2058C60.0583 32.7784 65.4851 34.1971 71.0076 34.1971H71.0245C76.5527 34.1971 81.9795 32.7728 86.3085 30.1889C86.5337 30.0538 86.8265 30.127 86.9616 30.3521C87.0967 30.5773 87.0235 30.87 86.7983 31.0052C82.3285 33.6735 76.7272 35.1428 71.0301 35.1484H71.0133H71.002Z" fill="#1D1D1D" stroke="#1D1D1D" stroke-width="0.1"/>
<path d="M50.9836 43.6772C50.7246 43.6772 50.5164 43.4745 50.5107 43.2156C50.5051 42.951 50.7134 42.7371 50.9723 42.7314C64.0327 42.4274 77.1156 42.236 90.9754 42.1572C91.2344 42.1572 91.4483 42.3655 91.4483 42.6301C91.4483 42.8947 91.24 43.1086 90.9754 43.1086C77.1213 43.1874 64.044 43.3788 50.9892 43.6828H50.978L50.9836 43.6772Z" fill="#1D1D1D" stroke="#1D1D1D" stroke-width="0.1"/>
<path d="M84.9969 58.0265C84.8844 58.0265 84.7661 57.9871 84.6761 57.9027C76.4795 50.4155 64.8434 50.027 56.3767 56.9682C56.174 57.1371 55.8756 57.1033 55.7068 56.9006C55.5379 56.698 55.5717 56.3996 55.7743 56.2307C64.6182 48.9856 76.7666 49.3853 85.3178 57.199C85.5092 57.3735 85.5261 57.6775 85.346 57.8689C85.2503 57.9702 85.1264 58.0209 84.9969 58.0209V58.0265Z" fill="#1D1D1D" stroke="#1D1D1D" stroke-width="0.1"/>
<path d="M70.7318 63.4871C70.6811 63.4871 70.6305 63.4759 70.5798 63.459C68.221 62.654 66.0255 60.9088 64.0496 58.2799C60.0076 52.8868 58.3019 45.7036 59.4954 39.0664C60.6663 32.5475 64.9785 26.1299 70.7487 22.3187C70.9063 22.2118 71.1146 22.2118 71.2722 22.3187C76.0516 25.46 79.1197 29.6877 80.9324 35.6156C83.3418 43.48 82.154 50.7758 77.307 57.9139C75.3817 60.7512 73.22 62.6146 70.8894 63.4533C70.8387 63.4702 70.7825 63.4815 70.7262 63.4815L70.7318 63.4871ZM71.0133 23.2926C65.5864 26.98 61.5445 33.0654 60.4298 39.2353C59.2814 45.6135 60.9196 52.5209 64.8096 57.7113C66.6166 60.1263 68.6095 61.7364 70.7262 62.5076C72.8091 61.7082 74.7569 59.9856 76.5245 57.3848C81.2026 50.4999 82.351 43.4687 80.0317 35.897C78.3203 30.3013 75.4493 26.2875 71.0189 23.2926H71.0133Z" fill="#1D1D1D" stroke="#1D1D1D" stroke-width="0.1"/>
<path d="M32.5865 45.5292C32.5865 38.0645 32.6372 31.5624 32.5865 24.5481C26.3997 24.5481 20.1792 24.8521 13.9417 24.7395C13.8798 31.8833 13.9417 38.6049 13.9417 45.5517C20.1735 45.5517 26.3885 45.5292 32.5865 45.5292Z" fill="white" stroke="#1D1D1D" stroke-width="0.1"/>
<path d="M13.9417 46.0301C13.6771 46.0301 13.4688 45.8162 13.4688 45.5573C13.4688 43.2436 13.4631 40.9524 13.4575 38.6612C13.4463 34.1632 13.4294 29.5076 13.4688 24.7451C13.4688 24.6156 13.5194 24.4974 13.6151 24.4073C13.7052 24.3172 13.8291 24.2778 13.9529 24.2722C17.5445 24.3341 21.1981 24.261 24.7277 24.1878C27.306 24.1371 29.9744 24.0808 32.5921 24.0808C32.8511 24.0808 33.065 24.2891 33.065 24.5537C33.0988 29.1755 33.0875 33.5496 33.0763 38.1827C33.0706 40.5583 33.065 42.9902 33.065 45.5348C33.065 45.7993 32.8511 46.0076 32.5921 46.0076C29.4959 46.0076 26.3941 46.0133 23.2922 46.0189C20.1791 46.0245 17.066 46.0301 13.9473 46.0301H13.9417ZM14.4145 25.2236C14.3808 29.8172 14.392 34.3039 14.4033 38.6499C14.4089 40.7835 14.4145 42.917 14.4145 45.0731C17.3756 45.0731 20.3311 45.0675 23.2866 45.0619C26.2308 45.0562 29.175 45.0506 32.1136 45.0506C32.1136 42.6806 32.1192 40.4007 32.1249 38.1714C32.1361 33.7016 32.1474 29.4682 32.1192 25.0209C29.6648 25.0266 27.1653 25.0772 24.7446 25.1279C21.3613 25.1954 17.871 25.2686 14.4145 25.218V25.2236Z" fill="#1D1D1D" stroke="#1D1D1D" stroke-width="0.1"/>
<path d="M17.3475 43.7166C17.3137 43.7166 17.2799 43.7053 17.2518 43.6828C16.6776 43.2606 16.1372 42.7821 15.6418 42.2698C15.5798 42.2079 15.5855 42.1065 15.6418 42.0446C15.7037 41.9827 15.805 41.9883 15.8669 42.0446C16.3511 42.5456 16.8803 43.0072 17.4376 43.4238C17.5051 43.4745 17.522 43.5758 17.4713 43.6434C17.4432 43.6828 17.3925 43.7053 17.3419 43.7053L17.3475 43.7166Z" fill="#1D1D1D" stroke="#1D1D1D" stroke-width="0.1"/>
<path d="M21.108 44.2569C21.0686 44.2569 21.0292 44.2457 21.001 44.2119C19.1658 42.5005 17.2687 40.8061 15.3659 39.1735C15.2984 39.1172 15.2928 39.0159 15.3491 38.9483C15.4053 38.8808 15.5067 38.8752 15.5742 38.9314C17.4826 40.5696 19.3798 42.2641 21.215 43.9755C21.2769 44.0374 21.2825 44.1331 21.2206 44.2006C21.1868 44.2344 21.1474 44.2513 21.1024 44.2513L21.108 44.2569Z" fill="#1D1D1D" stroke="#1D1D1D" stroke-width="0.1"/>
<path d="M24.8854 44.2399C24.8516 44.2399 24.8122 44.2286 24.7841 44.2005L15.5968 36.4318C15.5292 36.3755 15.5236 36.2742 15.5799 36.2066C15.6362 36.1391 15.7375 36.1335 15.8051 36.1898L24.9924 43.9584C25.0599 44.0147 25.0656 44.1161 25.0093 44.1836C24.9755 44.223 24.9305 44.2399 24.891 44.2399H24.8854Z" fill="#1D1D1D" stroke="#1D1D1D" stroke-width="0.1"/>
<path d="M28.3812 44.0654C28.3418 44.0654 28.308 44.0542 28.2743 44.026C24.2098 40.3838 19.9877 36.8034 15.7318 33.3751C15.6642 33.3188 15.653 33.2231 15.7093 33.1499C15.7656 33.0823 15.8613 33.0711 15.9344 33.1274C20.196 36.5557 24.4181 40.1417 28.4882 43.7896C28.5557 43.8459 28.5614 43.9472 28.4994 44.0148C28.4657 44.0485 28.4263 44.0654 28.3812 44.0654Z" fill="#1D1D1D" stroke="#1D1D1D" stroke-width="0.1"/>
<path d="M31.0947 42.9341C31.0609 42.9341 31.0271 42.9228 30.9933 42.9003C25.8199 38.7514 20.6633 34.4336 15.6643 30.0707C15.5967 30.0144 15.5911 29.9131 15.6474 29.8456C15.7037 29.778 15.805 29.7724 15.8726 29.8287C20.8659 34.1859 26.0225 38.5037 31.1904 42.6526C31.2579 42.7089 31.2692 42.8046 31.2129 42.8778C31.1791 42.9172 31.1341 42.9397 31.089 42.9397L31.0947 42.9341Z" fill="#1D1D1D" stroke="#1D1D1D" stroke-width="0.1"/>
<path d="M30.9821 39.4719C30.9483 39.4719 30.9089 39.4607 30.8808 39.4382L15.7037 27.0364C15.6362 26.9801 15.6249 26.8788 15.6812 26.8112C15.7375 26.7437 15.8388 26.7324 15.9064 26.7887L31.0834 39.1905C31.151 39.2468 31.1623 39.3481 31.106 39.4156C31.0722 39.4551 31.0271 39.4719 30.9821 39.4719Z" fill="#1D1D1D" stroke="#1D1D1D" stroke-width="0.1"/>
<path d="M31.0102 35.9141C30.9708 35.9141 30.937 35.9029 30.9089 35.8747C27.2441 32.7166 23.4723 29.581 19.6837 26.5467C19.6161 26.4904 19.6049 26.3947 19.6612 26.3215C19.7175 26.2539 19.8188 26.2427 19.8863 26.299C23.675 29.3333 27.4524 32.4745 31.1172 35.6383C31.1847 35.6946 31.1903 35.7959 31.134 35.8635C31.1003 35.8972 31.0609 35.9198 31.0158 35.9198L31.0102 35.9141Z" fill="#1D1D1D" stroke="#1D1D1D" stroke-width="0.1"/>
<path d="M30.9764 31.9622C30.9426 31.9622 30.9145 31.951 30.8863 31.9341C28.6458 30.3184 26.4334 28.6014 24.3167 26.8394C24.2492 26.7831 24.2379 26.6818 24.2942 26.6142C24.3505 26.5467 24.4518 26.5354 24.5194 26.5917C26.6361 28.3481 28.8372 30.0595 31.0721 31.6751C31.1453 31.7258 31.1566 31.8271 31.1059 31.8947C31.0777 31.9397 31.0271 31.9622 30.9764 31.9622Z" fill="#1D1D1D" stroke="#1D1D1D" stroke-width="0.1"/>
<path d="M31.1003 28.8433C31.0666 28.8433 31.0272 28.832 30.999 28.8039C30.2165 28.134 29.3946 27.4922 28.5614 26.9011C28.4883 26.8505 28.4714 26.7491 28.522 26.6816C28.5727 26.6084 28.674 26.5915 28.7416 26.6422C29.586 27.2445 30.4135 27.8919 31.2017 28.5618C31.2692 28.6181 31.2749 28.7194 31.2186 28.787C31.1848 28.8264 31.1397 28.8433 31.1003 28.8433Z" fill="#1D1D1D" stroke="#1D1D1D" stroke-width="0.1"/>
</g>
<defs>
<clipPath id="clip0_126_4151">
<rect width="92" height="68" fill="white"/>
</clipPath>
</defs>
</svg>
