<svg width="31" height="35" viewBox="0 0 31 35" fill="none" xmlns="http://www.w3.org/2000/svg">
<path d="M23.3465 21.0046C22.994 20.0412 21.7642 19.6987 21.0474 19.3224L24.7735 12.1382C25.0097 11.5293 25.7413 10.0415 25.581 9.49661C25.4207 8.95173 24.6197 8.29713 24.1389 8.08291C23.5301 7.84675 22.6088 8.72383 22.0622 8.89401C21.5157 9.0642 21.2794 10.4441 20.9266 11.0229L19.5887 11.3112L19.9972 8.92591C20.2116 7.67413 21.3104 5.70129 18.8876 4.86026C17.6811 4.44059 16.5325 6.52665 16.5524 7.95045L15.4891 12.6788C15.3829 12.5287 14.1388 11.3214 13.8924 11.2792C13.3038 10.9248 12.9014 11.2008 12.3548 11.371C11.6818 11.5094 11.2212 11.9479 10.8887 12.4084C10.7606 12.3865 10.6642 12.2381 10.5361 12.2161C9.94748 11.8617 9.32652 11.7553 8.78164 11.9157C7.9684 12.1619 7.35769 12.7067 7.07932 13.5619C7.05738 13.6901 6.92925 13.6681 6.90899 13.7864L5.48759 22.8566C4.99302 25.7446 6.88372 29.041 9.77168 29.5356L16.0503 30.6108C19.6972 31.2354 20.8126 29.2248 23.0515 25.2152C24.0369 23.9636 23.8364 22.1132 23.3876 21.0015L23.3465 21.0046Z" fill="white"/>
<path d="M19.3947 14.6362L20.6641 7.22407C20.8582 6.09057 20.1312 5.06312 18.9977 4.869C17.8642 4.67489 16.8367 5.40189 16.6426 6.53539L15.6096 12.5676" stroke="#1D1D1D" stroke-linecap="round"/>
<path d="M21.4335 19.3784L25.7631 10.6845C26.3099 9.74327 25.883 8.50343 24.8137 7.93477C23.8505 7.51619 22.6107 7.94303 22.0639 8.88425L19.3947 14.6362" stroke="#1D1D1D" stroke-linecap="round"/>
<path d="M11.2774 12.9824L12.1628 16.1067C12.4933 17.1982 11.7762 18.3638 10.7051 18.5761C9.6136 18.9066 8.44791 18.1895 8.23568 17.1183L7.2222 13.9721C6.89169 12.8807 7.60874 11.715 8.67994 11.5028C9.77139 11.1722 10.9371 11.8893 11.2676 12.9807L11.2774 12.9824Z" stroke="#1D1D1D" stroke-linecap="round"/>
<path d="M15.7761 17.6385C16.1508 16.9316 16.2807 16.1726 16.0142 15.4777L15.1508 12.2253C14.8203 11.1338 13.7729 10.437 12.6814 10.7675C11.59 11.0981 11.0067 12.1345 11.3372 13.2259" stroke="#1D1D1D" stroke-linecap="round"/>
<path d="M17.2563 24.8721L18.1015 23.7284C18.1234 23.6003 18.1437 23.482 18.0155 23.46L13.7058 21.4335C12.8707 21.0368 12.3918 20.0417 12.6702 19.1864C12.9705 18.203 13.976 17.6042 15.1095 17.7983L21.0556 19.334C21.0556 19.334 25.6979 20.9 23.2529 25.4019C20.8079 29.9038 19.8986 31.4221 16.2517 30.7976L9.97307 29.7224C7.08511 29.2278 5.10832 26.434 5.60289 23.5461L7.14233 13.0757" stroke="#1D1D1D" stroke-linecap="round"/>
</svg>
