<svg width="19" height="17" viewBox="0 0 19 17" fill="none" xmlns="http://www.w3.org/2000/svg">
<mask id="path-1-inside-1_165_411" fill="white">
<path d="M1.24008 9.02223C1.95655 10.2944 2.81425 11.4562 3.80458 12.5268C5.0252 13.8446 6.42742 14.9349 7.94202 15.8857C8.31879 16.1212 8.70454 16.347 9.08399 16.5808C9.64317 16.9236 10.1733 16.9561 10.7552 16.5785C11.6911 15.9718 12.5427 15.2664 13.3735 14.5264C14.8701 13.1939 16.1863 11.6987 17.2875 10.0292C18.3653 8.39434 19.0502 6.60195 18.8788 4.60078C18.7498 3.08237 18.0114 1.90562 16.6753 1.12637C15.3868 0.375503 14.0721 0.474396 12.7575 1.02413C11.5853 1.51484 10.7066 2.36341 10.0022 3.40355C9.91575 3.52983 9.83557 3.65973 9.74739 3.78333C9.51478 4.1119 9.27808 4.1329 8.99756 3.84743C8.64381 3.4888 8.3107 3.10886 7.94435 2.76623C7.04734 1.93095 5.97266 1.41697 4.77951 1.17373C2.47217 0.698835 0.752278 1.89712 0.2444 4.11635C0.144634 4.55592 0.144269 5.02059 0.0975481 5.4734C0.136248 6.7757 0.616863 7.91799 1.2414 9.02715L1.24008 9.02223Z"/>
</mask>
<path d="M1.24008 9.02223C1.95655 10.2944 2.81425 11.4562 3.80458 12.5268C5.0252 13.8446 6.42742 14.9349 7.94202 15.8857C8.31879 16.1212 8.70454 16.347 9.08399 16.5808C9.64317 16.9236 10.1733 16.9561 10.7552 16.5785C11.6911 15.9718 12.5427 15.2664 13.3735 14.5264C14.8701 13.1939 16.1863 11.6987 17.2875 10.0292C18.3653 8.39434 19.0502 6.60195 18.8788 4.60078C18.7498 3.08237 18.0114 1.90562 16.6753 1.12637C15.3868 0.375503 14.0721 0.474396 12.7575 1.02413C11.5853 1.51484 10.7066 2.36341 10.0022 3.40355C9.91575 3.52983 9.83557 3.65973 9.74739 3.78333C9.51478 4.1119 9.27808 4.1329 8.99756 3.84743C8.64381 3.4888 8.3107 3.10886 7.94435 2.76623C7.04734 1.93095 5.97266 1.41697 4.77951 1.17373C2.47217 0.698835 0.752278 1.89712 0.2444 4.11635C0.144634 4.55592 0.144269 5.02059 0.0975481 5.4734C0.136248 6.7757 0.616863 7.91799 1.2414 9.02715L1.24008 9.02223Z" fill="#FFEDE3" stroke="#1D1D1D" stroke-width="2" mask="url(#path-1-inside-1_165_411)"/>
</svg>
