<svg viewBox="0 0 1920 118" fill="none" xmlns="http://www.w3.org/2000/svg" preserveAspectRatio="none">
<path d="M1920 73.9506C1920 73.9506 1870.56 84.5679 1825.19 85.3086C1779.13 86.0494 1739.85 85.3086 1683.64 81.6049C1607.11 76.6667 1459.47 56.6667 1380.91 67.5309C1302.35 78.3951 1298.96 78.8889 1259.01 85.8025C1214.31 93.7037 1123.56 109.506 1011.13 108.765C891.259 108.025 673.862 67.7778 584.466 69.7531C574.984 70 539.767 71.7284 513.355 74.6914C487.619 77.6543 449.693 84.0741 398.222 86.2963C376.55 87.2839 342.011 89.0124 302.053 88.5185C291.894 88.2716 259.386 87.5309 220.783 84.5679C182.18 81.6049 146.286 76.9136 113.778 75.4321C44.0212 72.716 0 76.6667 0 76.6667V0H1920V73.9506ZM1766.26 77.9012C1761.52 75.4321 1752.72 76.9136 1737.14 76.9136C1721.57 76.9136 1695.83 73.9506 1697.86 74.1975C1699.89 74.4444 1718.86 77.9012 1738.5 78.8889C1758.81 80.1235 1770.33 80.3704 1766.26 77.9012ZM1641.65 71.2346C1641.65 71.2346 1625.4 70.7407 1603.72 69.0123C1582.05 67.037 1533.97 62.0988 1501.46 60.3704C1445.93 57.6543 1394.46 60.3704 1399.2 60.6173C1404.61 60.8642 1464.21 59.1358 1518.39 63.3333C1540.74 65.0617 1581.38 68.7654 1602.37 70C1624.72 71.4815 1641.65 71.2346 1641.65 71.2346ZM1254.26 70.9877C1265.78 69.2593 1164.19 82.5926 1128.97 86.0494C1114.75 87.5309 1086.98 90 1061.25 90.9877C1034.84 91.9753 1000.97 91.9753 1001.65 92.2222C1001.65 92.716 1040.93 94.1975 1077.5 92.2222C1114.07 90.2469 1112.72 89.5062 1128.97 88.2716C1154.71 86.2963 1242.75 72.7161 1254.26 70.9877ZM1348.4 67.037C1349.76 67.037 1342.98 66.0494 1315.89 69.7531C1288.8 73.4568 1270.52 78.3951 1269.16 78.8889C1267.81 79.1358 1292.87 74.4444 1313.86 71.4815C1334.18 68.5185 1347.72 67.037 1348.4 67.037ZM1916.61 64.8148C1915.94 65.0617 1903.75 67.5309 1884.11 70.9877C1864.47 74.4444 1837.38 77.9012 1838.73 77.6543C1840.08 77.6543 1862.43 76.1728 1888.85 71.4815C1915.26 66.7901 1917.29 64.5679 1916.61 64.8148ZM211.979 78.642C212.656 78.1481 199.111 78.1481 181.503 75.679C163.894 73.2099 144.931 71.7284 128.677 70.7407C101.587 68.7654 49.4392 70.9877 52.1481 71.2346C54.1799 71.4815 107.683 70.4938 136.804 72.963C151.704 74.1975 153.058 74.1975 175.407 76.9136C197.757 79.6296 211.302 79.3827 211.979 78.642ZM494.392 72.716C497.101 72.4691 518.095 68.7654 551.28 66.2963C584.466 63.5802 611.556 65.0617 611.556 64.321C611.556 63.5802 604.783 62.0988 569.566 63.5802C534.349 65.0617 491.683 72.963 494.392 72.716ZM484.91 66.5432C486.265 66.7901 507.937 63.3333 523.513 62.3457C539.09 61.6049 536.381 61.1111 536.381 60.8642C536.381 60.6173 528.931 60.3704 518.095 61.358C506.582 62.5926 483.556 66.2963 484.91 66.5432ZM633.905 60.8642C634.582 61.358 657.608 62.8395 671.831 65.3086C686.053 67.7778 684.021 66.7901 684.698 66.5432C685.376 66.2963 679.28 64.5679 668.444 63.3333C657.608 61.8519 633.228 60.3704 633.905 60.8642ZM442.921 77.4074C442.243 78.1482 444.952 78.642 455.788 76.9136C466.624 75.1852 473.397 73.7037 470.688 73.9506C467.979 74.1975 464.593 74.9383 453.757 75.9259C442.243 76.9136 443.598 76.6667 442.921 77.4074ZM233.651 80.6173C232.296 80.6173 247.873 82.5926 256 82.8395C264.127 83.0864 269.545 83.0864 269.545 82.3457C269.545 81.6049 268.868 81.1111 258.709 81.358C247.873 81.6049 235.005 80.6173 233.651 80.6173ZM1030.77 102.099C1030.1 102.346 1014.52 101.358 979.979 101.358C945.439 101.358 887.873 95.4321 863.492 92.716C839.111 90 931.217 102.346 975.238 102.84C1019.26 103.333 1031.45 101.852 1030.77 102.099Z" fill="currentColor"></path>
<path d="M1825.86 94.4446C1825.19 94.1977 1794.71 95.1853 1777.1 94.4446C1727.66 92.7162 1661.97 86.5434 1664.68 87.2841C1667.39 88.0248 1757.46 94.9384 1779.81 95.4323C1812.99 96.4199 1826.54 94.4446 1825.86 94.4446Z" fill="currentColor"></path>
<path d="M1540.06 74.1976C1538.71 73.9506 1509.59 71.7284 1475.72 71.2346C1441.86 70.7408 1389.71 72.7161 1392.42 72.4692C1394.45 72.2222 1432.38 68.0247 1482.5 69.5062C1532.61 70.9877 1541.42 74.4445 1540.06 74.1976Z" fill="currentColor"></path>
<path d="M1384.97 83.0863C1384.3 82.8394 1398.52 80.6172 1406.65 80.3703C1414.77 80.1233 1420.19 80.3703 1420.19 81.111C1420.19 81.8517 1419.51 82.3456 1409.35 82.0986C1397.84 81.8517 1385.65 83.3332 1384.97 83.0863Z" fill="currentColor"></path>
<path d="M1361.27 76.1729C1361.27 75.926 1331.47 79.1359 1318.6 81.605C1305.73 83.8273 1276.61 89.2594 1277.29 89.2594C1277.97 89.5063 1305.73 85.3087 1319.96 82.8396C1334.18 80.3705 1361.27 76.4199 1361.27 76.1729Z" fill="currentColor"></path>
<path d="M1046.35 115.926C1045.67 115.679 1015.2 116.667 997.587 115.926C948.148 114.198 882.455 108.025 885.164 108.765C887.873 109.506 977.947 116.42 1000.3 116.914C1033.48 117.901 1047.03 116.173 1046.35 115.926Z" fill="currentColor"></path>
<path d="M283.767 97.6544C283.767 97.6544 291.894 96.9137 303.407 97.4075C314.92 97.9013 342.687 99.6297 358.941 99.1359C387.386 98.1482 409.058 92.4692 406.349 92.7161C403.64 92.7161 377.227 98.1482 348.105 97.4075C335.915 97.1606 313.565 96.1729 302.729 96.4198C291.894 96.6668 283.767 97.6544 283.767 97.6544Z" fill="currentColor"></path>
<path d="M511.322 81.1111C512.677 81.358 524.867 79.1358 540.444 78.3951C556.021 77.9012 554.666 77.6543 554.666 77.1605C554.666 76.9136 542.476 76.1729 531.64 77.1605C520.804 78.3951 509.968 80.8642 511.322 81.1111Z" fill="currentColor"></path>
<path d="M105.651 82.5926C105.651 82.3457 134.773 82.5926 151.027 83.8272C167.281 85.0617 184.89 88.5185 184.89 88.7655C184.89 89.0124 166.604 86.7901 150.35 85.3087C134.773 83.8272 106.329 82.8395 105.651 82.5926Z" fill="currentColor"></path>
</svg>