<svg width="80" height="60" viewBox="0 0 80 60" fill="none" xmlns="http://www.w3.org/2000/svg">
<g clip-path="url(#clip0_196_259)">
<path d="M62.9143 0.407471H16.8324C8.21068 0.407471 1.21857 7.39958 1.21857 16.0213L1.47182 27.2968C1.47182 34.4541 6.28372 40.4772 12.8464 42.3161L9.66415 59.5926L24.0448 42.9107H63.1565C71.7783 42.9107 78.7594 35.9186 78.7594 27.3078L78.5061 16.0324C78.5061 7.41059 71.514 0.429493 62.9033 0.429493L62.9143 0.407471Z" fill="white"/>
<path d="M9.66416 60C9.6091 60 9.54304 59.989 9.48798 59.956C9.32281 59.8789 9.22371 59.6917 9.25674 59.5045L12.3729 42.6023C5.70013 40.5652 1.06441 34.3219 1.06441 27.2968L0.811157 16.0213C0.811157 7.19031 8.00147 0 16.8324 0H62.9143C71.7453 0 78.9356 7.19031 78.9356 16.0213L79.1888 27.2968C79.1888 36.1387 71.9985 43.329 63.1676 43.329H24.243L9.98348 59.8679C9.9064 59.956 9.78528 60.011 9.67517 60.011L9.66416 60ZM16.8324 0.82584C8.45293 0.82584 1.637 7.64177 1.637 16.0213L1.89025 27.2968C1.89025 34.0796 6.44889 40.0918 12.9675 41.9306C13.1767 41.9857 13.2979 42.1949 13.2648 42.4041L10.3579 58.1721L23.7475 42.6353C23.8246 42.5473 23.9347 42.4922 24.0558 42.4922H63.1676C71.5471 42.4922 78.363 35.6763 78.363 27.2968L78.1097 16.0213C78.1097 7.63076 71.2938 0.814828 62.9143 0.814828H16.8324V0.82584Z" fill="#1D1D1D"/>
<path d="M62.1986 20.9983C62.1986 18.9062 60.5028 17.1995 58.3997 17.1995C56.2966 17.1995 54.6008 18.8952 54.6008 20.9983C54.6008 23.1015 56.2966 24.7972 58.3997 24.7972C60.5028 24.7972 62.1986 23.1015 62.1986 20.9983Z" fill="#FFE7A9"/>
<path d="M58.3997 25.2155C56.0763 25.2155 54.1934 23.3326 54.1934 21.0093C54.1934 18.6859 56.0763 16.803 58.3997 16.803C60.7231 16.803 62.606 18.6859 62.606 21.0093C62.606 23.3326 60.7231 25.2155 58.3997 25.2155ZM58.3997 17.6178C56.5388 17.6178 55.0193 19.1374 55.0193 20.9982C55.0193 22.8591 56.5388 24.3787 58.3997 24.3787C60.2606 24.3787 61.7801 22.8591 61.7801 20.9982C61.7801 19.1374 60.2606 17.6178 58.3997 17.6178Z" fill="#1D1D1D"/>
<path d="M43.7988 20.9983C43.7988 18.9062 42.1031 17.1995 40 17.1995C37.8968 17.1995 36.2011 18.8952 36.2011 20.9983C36.2011 23.1015 37.8968 24.7972 40 24.7972C42.1031 24.7972 43.7988 23.1015 43.7988 20.9983Z" fill="#FFE7A9"/>
<path d="M40 25.2155C37.6766 25.2155 35.7937 23.3326 35.7937 21.0093C35.7937 18.6859 37.6766 16.803 40 16.803C42.3233 16.803 44.2063 18.6859 44.2063 21.0093C44.2063 23.3326 42.3233 25.2155 40 25.2155ZM40 17.6178C38.1391 17.6178 36.6195 19.1374 36.6195 20.9982C36.6195 22.8591 38.1391 24.3787 40 24.3787C41.8609 24.3787 43.3804 22.8591 43.3804 20.9982C43.3804 19.1374 41.8609 17.6178 40 17.6178Z" fill="#1D1D1D"/>
<path d="M25.3881 20.9983C25.3881 18.9062 23.6924 17.1995 21.5893 17.1995C19.4861 17.1995 17.7904 18.8952 17.7904 20.9983C17.7904 23.1015 19.4861 24.7972 21.5893 24.7972C23.6924 24.7972 25.3881 23.1015 25.3881 20.9983Z" fill="#FFE7A9"/>
<path d="M21.5893 25.2155C19.2659 25.2155 17.383 23.3326 17.383 21.0093C17.383 18.6859 19.2659 16.803 21.5893 16.803C23.9126 16.803 25.7955 18.6859 25.7955 21.0093C25.7955 23.3326 23.9126 25.2155 21.5893 25.2155ZM21.5893 17.6178C19.7284 17.6178 18.2088 19.1374 18.2088 20.9982C18.2088 22.8591 19.7284 24.3787 21.5893 24.3787C23.4502 24.3787 24.9697 22.8591 24.9697 20.9982C24.9697 19.1374 23.4502 17.6178 21.5893 17.6178Z" fill="#1D1D1D"/>
</g>
<defs>
<clipPath id="clip0_196_259">
<rect width="78.3777" height="60" fill="white" transform="translate(0.811157)"/>
</clipPath>
</defs>
</svg>