<svg width="97" height="90" viewBox="0 0 97 90" fill="none" xmlns="http://www.w3.org/2000/svg">
<path d="M86.9098 86.2835C93.6923 58.5323 81.7097 32.2513 62.7776 24.7416C60.9012 23.9973 58.8582 23.1891 56.752 22.5663M56.752 22.5663C53.3978 21.5744 49.8838 21.0526 46.6278 22.007C43.6229 22.888 40.0803 25.3013 39.3375 28.4921C37.9505 34.4525 44.7747 38.8468 50.1616 36.4461C54.8961 34.3365 58.2543 27.4691 56.752 22.5663ZM56.752 22.5663C56.7203 22.4629 56.6865 22.3603 56.6505 22.2588C47.95 -2.26508 17.3687 -1.35225 1.37888 12.7096" stroke="#1D1D1D" stroke-miterlimit="1.5" stroke-linecap="round" stroke-linejoin="round"/>
<path d="M95.6041 71.1121C93.2656 75.8204 89.9795 82.091 86.9097 86.2835C86.5562 86.767 83.8759 83.1603 83.7665 82.9835C81.3606 79.1099 79.5355 75.0399 77.7645 70.8522" stroke="#1D1D1D" stroke-miterlimit="1.5" stroke-linecap="round" stroke-linejoin="round"/>
</svg>
