<svg width="174" height="192" viewBox="0 0 174 192" fill="none" xmlns="http://www.w3.org/2000/svg">
<path d="M126.728 175.954C82.5573 173.922 48.7556 144.663 45.8614 113.273C45.5745 110.162 45.2655 106.775 45.2593 103.375M45.2593 103.375C45.2494 97.9617 46.0072 92.5156 48.8448 88.0966C51.4638 84.0184 56.5929 79.8101 61.6554 80.0988C71.112 80.639 74.661 92.6901 68.7462 99.6428C63.5482 105.754 51.8848 107.745 45.2593 103.375ZM45.2593 103.375C45.1195 103.283 44.982 103.188 44.8469 103.091C12.2228 79.4728 42 14.5 68.7461 5.99987" stroke="white" stroke-miterlimit="1.5" stroke-linecap="round" stroke-linejoin="round"/>
<path d="M101.095 184.437C109.011 182.554 119.614 179.787 127.007 176.621C127.859 176.257 123.356 170.957 123.128 170.73C118.127 165.75 112.626 161.578 106.93 157.445" stroke="white" stroke-miterlimit="1.5" stroke-linecap="round" stroke-linejoin="round"/>
</svg>
