<svg width="18" height="16" viewBox="0 0 18 16" fill="none" xmlns="http://www.w3.org/2000/svg">
<mask id="path-1-inside-1_165_418" fill="white">
<path d="M13.797 15.6297C9.86738 15.484 5.92156 15.5467 1.99972 15.6376C1.60854 15.6336 1.21736 15.6297 0.82819 15.5997C0.311318 15.5335 0.175743 15.261 0.445439 14.8097C0.717141 14.3324 0.990871 13.829 1.31445 13.3559C4.00716 9.23694 6.69985 5.11824 9.39457 0.973328C10.0178 -0.00124007 10.405 0.0548151 10.9532 1.06731C12.9889 4.79046 15.27 8.37517 16.5191 12.4834C17.5371 15.8659 17.591 15.8437 14.2122 15.6617C14.0565 15.6497 13.9268 15.6397 13.797 15.6297Z"/>
</mask>
<path d="M13.797 15.6297C9.86738 15.484 5.92156 15.5467 1.99972 15.6376C1.60854 15.6336 1.21736 15.6297 0.82819 15.5997C0.311318 15.5335 0.175743 15.261 0.445439 14.8097C0.717141 14.3324 0.990871 13.829 1.31445 13.3559C4.00716 9.23694 6.69985 5.11824 9.39457 0.973328C10.0178 -0.00124007 10.405 0.0548151 10.9532 1.06731C12.9889 4.79046 15.27 8.37517 16.5191 12.4834C17.5371 15.8659 17.591 15.8437 14.2122 15.6617C14.0565 15.6497 13.9268 15.6397 13.797 15.6297Z" fill="#FFE3FB" stroke="#1D1D1D" stroke-width="2" mask="url(#path-1-inside-1_165_418)"/>
</svg>
